<?xml version="1.0" standalone="no"?>
<!DOCTYPE svg PUBLIC "-//W3C//DTD SVG 20010904//EN"
 "http://www.w3.org/TR/2001/REC-SVG-20010904/DTD/svg10.dtd">
<svg version="1.0" xmlns="http://www.w3.org/2000/svg"
 width="500.000000pt" height="500.000000pt" viewBox="0 0 500.000000 500.000000"
 preserveAspectRatio="xMidYMid meet">
<metadata>
Created by potrace 1.16, written by Peter Selinger 2001-2019
</metadata>
<g transform="translate(0.000000,500.000000) scale(0.100000,-0.100000)"
fill="#000000" stroke="none">
<path d="M0 2500 l0 -2500 2500 0 2500 0 0 2500 0 2500 -2500 0 -2500 0 0
-2500z m3418 678 c-19 -24 -132 -165 -251 -315 l-217 -272 2 -218 c3 -218 3
-218 26 -221 18 -3 22 -10 22 -36 0 -29 -4 -34 -30 -39 -42 -9 -86 2 -107 25
-15 17 -19 45 -23 184 l-5 164 -57 -72 -58 -73 0 -112 0 -113 -55 0 -55 0 0
165 c0 158 -1 165 -20 165 -16 0 -20 7 -20 35 0 28 4 35 19 35 15 0 20 10 25
54 9 65 36 100 92 115 71 20 104 11 104 -27 0 -22 22 -4 158 129 318 314 477
469 481 469 2 0 -12 -19 -31 -42z m-1408 -583 c33 -17 80 -90 80 -123 0 -20
-5 -22 -50 -22 -45 0 -50 2 -56 25 -8 31 -49 65 -80 65 -64 0 -100 -50 -69
-97 18 -26 34 -35 115 -57 110 -31 149 -74 152 -167 1 -61 -20 -95 -78 -124
-52 -27 -193 -28 -241 -2 -40 21 -81 74 -89 115 l-6 32 50 0 c47 0 51 -2 71
-35 35 -60 123 -76 160 -29 27 34 26 47 -2 80 -22 25 -24 25 -40 10 -16 -16
-17 -16 -27 6 -7 14 -37 35 -79 54 -84 38 -106 68 -105 139 0 76 35 117 124
146 35 12 135 2 170 -16z m272 -62 l3 -48 43 -3 c42 -3 43 -4 40 -35 -3 -30
-6 -32 -45 -35 l-43 -3 0 -110 c0 -126 8 -149 50 -149 28 0 30 -2 30 -40 l0
-40 -57 0 c-121 0 -125 7 -124 196 l2 144 -31 0 c-28 0 -30 3 -30 34 0 30 3
35 28 38 25 3 27 7 30 51 l3 47 49 0 49 0 3 -47z m1011 -47 c21 -8 48 -22 59
-33 29 -25 56 -89 60 -143 l3 -45 -142 -3 -143 -3 0 -28 c0 -35 32 -77 65 -85
33 -8 91 17 100 43 5 18 14 21 60 21 l55 0 -11 -27 c-14 -38 -47 -71 -93 -95
-85 -44 -221 -5 -262 74 -22 42 -29 142 -15 196 29 106 155 167 264 128z
m-773 -201 l0 -205 -56 0 -56 0 6 193 c3 105 6 198 6 205 0 8 17 12 50 12 l50
0 0 -205z"/>
</g>
</svg>
